<svg width="20" height="21" viewBox="0 0 20 21" fill="none" xmlns="http://www.w3.org/2000/svg">
<path d="M16.4163 9.91537L10.583 4.08203C10.2497 3.7487 9.74967 3.7487 9.41634 4.08203C9.08301 4.41536 9.08301 4.91536 9.41634 5.2487L13.833 9.66536H4.16634C3.66634 9.66536 3.33301 9.9987 3.33301 10.4987C3.33301 10.9987 3.66634 11.332 4.16634 11.332H13.833L9.41634 15.7487C9.08301 16.082 9.08301 16.582 9.41634 16.9154C9.58301 17.082 9.74967 17.1654 9.99967 17.1654C10.2497 17.1654 10.4163 17.082 10.583 16.9154L16.4163 11.082C16.7497 10.7487 16.7497 10.2487 16.4163 9.91537Z" fill="#AEAEAE"/>
</svg>
