<svg width="45" height="45" viewBox="0 0 45 45" fill="none" xmlns="http://www.w3.org/2000/svg">
<rect width="45" height="45" rx="22.5" fill="#9D1949"/>
<g clip-path="url(#clip0_155_18746)">
<path d="M32.85 12.1661C32.698 12.0138 32.5175 11.893 32.3188 11.8105C32.12 11.7281 31.907 11.6857 31.6918 11.6857C31.4767 11.6857 31.2636 11.7281 31.0649 11.8105C30.8661 11.893 30.6856 12.0138 30.5336 12.1661L22.5 20.1832L14.4665 12.1497C14.3144 11.9976 14.1338 11.8769 13.9351 11.7946C13.7363 11.7123 13.5234 11.6699 13.3083 11.6699C13.0932 11.6699 12.8802 11.7123 12.6814 11.7946C12.4827 11.8769 12.3021 11.9976 12.15 12.1497C11.9979 12.3018 11.8773 12.4823 11.795 12.6811C11.7127 12.8798 11.6703 13.0928 11.6703 13.3079C11.6703 13.523 11.7127 13.736 11.795 13.9347C11.8773 14.1334 11.9979 14.314 12.15 14.4661L20.1836 22.4997L12.15 30.5332C11.9979 30.6853 11.8773 30.8659 11.795 31.0646C11.7127 31.2634 11.6703 31.4764 11.6703 31.6915C11.6703 31.9066 11.7127 32.1196 11.795 32.3183C11.8773 32.517 11.9979 32.6976 12.15 32.8497C12.3021 33.0018 12.4827 33.1224 12.6814 33.2047C12.8802 33.2871 13.0932 33.3294 13.3083 33.3294C13.5234 33.3294 13.7363 33.2871 13.9351 33.2047C14.1338 33.1224 14.3144 33.0018 14.4665 32.8497L22.5 24.8161L30.5336 32.8497C30.6857 33.0018 30.8663 33.1224 31.065 33.2047C31.2637 33.2871 31.4767 33.3294 31.6918 33.3294C31.9069 33.3294 32.1199 33.2871 32.3186 33.2047C32.5174 33.1224 32.6979 33.0018 32.85 32.8497C33.0021 32.6976 33.1228 32.517 33.2051 32.3183C33.2874 32.1196 33.3298 31.9066 33.3298 31.6915C33.3298 31.4764 33.2874 31.2634 33.2051 31.0646C33.1228 30.8659 33.0021 30.6853 32.85 30.5332L24.8165 22.4997L32.85 14.4661C33.4743 13.8418 33.4743 12.7904 32.85 12.1661Z" fill="white"/>
</g>
<defs>
<clipPath id="clip0_155_18746">
<rect width="23" height="23" fill="white" transform="translate(11 11)"/>
</clipPath>
</defs>
</svg>
