<svg width="25" height="25" viewBox="0 0 25 25" fill="none" xmlns="http://www.w3.org/2000/svg">
<g clip-path="url(#clip0_401_2833)">
<circle cx="12.5" cy="12.5" r="12.5" fill="#262626"/>
<path d="M12.5 0C10.0277 0 7.61099 0.733112 5.55538 2.10663C3.49976 3.48015 1.89761 5.43238 0.951512 7.71646C0.00541602 10.0005 -0.242126 12.5139 0.24019 14.9386C0.722505 17.3634 1.91301 19.5907 3.66117 21.3388C5.40933 23.087 7.63661 24.2775 10.0614 24.7598C12.4861 25.2421 14.9995 24.9946 17.2835 24.0485C19.5676 23.1024 21.5199 21.5002 22.8934 19.4446C24.2669 17.389 25 14.9723 25 12.5C25 9.18479 23.683 6.00537 21.3388 3.66117C18.9946 1.31696 15.8152 0 12.5 0V0ZM18.2648 16.4013C17.972 16.4424 16.5493 16.4013 16.4753 16.4013C16.1075 16.4051 15.753 16.2638 15.4885 16.0082C15.1875 15.7188 14.9161 15.4013 14.6283 15.0987C14.5413 15.007 14.4473 14.9223 14.347 14.8454C14.1118 14.6645 13.8799 14.7056 13.7697 14.9819C13.6837 15.2815 13.6243 15.588 13.5921 15.898C13.5898 15.9628 13.5747 16.0266 13.5477 16.0855C13.5207 16.1445 13.4824 16.1976 13.4349 16.2417C13.3874 16.2859 13.3316 16.3202 13.2708 16.3428C13.2101 16.3654 13.1454 16.3758 13.0806 16.3734C12.8865 16.3832 12.6924 16.3865 12.5 16.3734C11.7999 16.3705 11.1104 16.2014 10.4885 15.8799C9.81675 15.5046 9.23122 14.9924 8.76974 14.3766C8.03104 13.4019 7.39292 12.3549 6.86514 11.2516C6.83718 11.1974 6.2829 10.0181 6.26974 9.96217C6.23685 9.88546 6.23436 9.79911 6.26276 9.72062C6.29116 9.64213 6.34834 9.57738 6.4227 9.53947C6.52139 9.50165 8.34869 9.53947 8.3783 9.53947C8.51428 9.53755 8.64729 9.57934 8.75773 9.6587C8.86818 9.73805 8.95022 9.85077 8.99178 9.98026C9.32975 10.8439 9.79125 11.6538 10.3618 12.3849C10.4419 12.4822 10.5355 12.5675 10.6398 12.6382C10.6667 12.6642 10.7 12.6826 10.7364 12.6915C10.7727 12.7004 10.8108 12.6994 10.8466 12.6887C10.8825 12.678 10.9148 12.6579 10.9404 12.6305C10.9659 12.6031 10.9836 12.5694 10.9918 12.5329C11.0642 12.2946 11.1067 12.0482 11.1184 11.7993C11.1283 11.3059 11.1184 10.977 11.0905 10.4836C11.1004 10.3154 11.0436 10.1501 10.9325 10.0236C10.8213 9.89701 10.6647 9.8194 10.4967 9.80757C10.352 9.7829 10.3322 9.66447 10.4326 9.54605C10.625 9.30099 10.8915 9.26151 11.1809 9.24671C11.6184 9.22204 12.0576 9.24671 12.4967 9.24671H12.5921C12.7849 9.24623 12.9773 9.26552 13.1661 9.30428C13.2766 9.3269 13.3767 9.38459 13.4517 9.46876C13.5267 9.55293 13.5725 9.65908 13.5822 9.77138C13.6043 9.89567 13.6143 10.0218 13.6118 10.148C13.6003 10.6875 13.574 11.2253 13.5674 11.7632C13.5634 11.9762 13.5827 12.1891 13.625 12.398C13.6891 12.6842 13.8849 12.7566 14.0855 12.5493C14.3356 12.2804 14.5649 11.9928 14.7714 11.6891C15.1424 11.1376 15.4482 10.5448 15.6826 9.9227C15.8092 9.60362 15.9063 9.5329 16.25 9.5329H18.1891C18.3047 9.53113 18.42 9.54609 18.5313 9.5773C18.5705 9.58776 18.6071 9.60615 18.6389 9.63136C18.6707 9.65656 18.697 9.68803 18.7161 9.72381C18.7352 9.75959 18.7468 9.79892 18.7501 9.83936C18.7534 9.8798 18.7483 9.92048 18.7352 9.95888C18.6222 10.3716 18.4276 10.7575 18.1628 11.0938C17.7681 11.653 17.3536 12.1974 16.949 12.7484C16.8975 12.8186 16.8508 12.8922 16.8092 12.9688C16.6579 13.2434 16.6694 13.3964 16.8882 13.6266C17.2401 13.9901 17.6168 14.3289 17.9556 14.7007C18.2051 14.9724 18.4307 15.2651 18.6299 15.5757C18.8799 15.9671 18.727 16.3355 18.2648 16.4013Z" fill="url(#paint0_linear_401_2833)"/>
</g>
<defs>
<linearGradient id="paint0_linear_401_2833" x1="0.574712" y1="-10.1064" x2="30.7537" y2="-5.95856" gradientUnits="userSpaceOnUse">
<stop stop-color="#F9ED32"/>
<stop offset="0.811414" stop-color="#FBB040"/>
</linearGradient>
<clipPath id="clip0_401_2833">
<rect width="25" height="25" fill="white"/>
</clipPath>
</defs>
</svg>
