<svg width="25" height="25" viewBox="0 0 25 25" fill="none" xmlns="http://www.w3.org/2000/svg">
<g clip-path="url(#clip0_401_2843)">
<g clip-path="url(#clip1_401_2843)">
<circle cx="12.5" cy="12.5" r="12.5" fill="#262626"/>
<path d="M14.9671 13.1974C14.8852 13.1112 14.7824 13.0477 14.6687 13.0131C14.5549 12.9786 14.4342 12.9741 14.3182 13.0001C14.2022 13.0261 14.095 13.0817 14.0069 13.1616C13.9189 13.2414 13.853 13.3427 13.8158 13.4556C13.7569 13.6149 13.6424 13.7475 13.4933 13.8289C13.3442 13.9102 13.1707 13.9348 13.0049 13.898C12.2664 13.7138 11.2714 12.7467 11.0871 11.9819C11.0421 11.8155 11.063 11.6383 11.1454 11.4869C11.2278 11.3356 11.3654 11.2218 11.5296 11.1694C11.6404 11.1321 11.7399 11.0671 11.8185 10.9806C11.8971 10.894 11.9523 10.7888 11.9789 10.675C12.0054 10.5611 12.0024 10.4423 11.9701 10.3299C11.9378 10.2176 11.8773 10.1153 11.7944 10.0329L10.7615 8.99999C10.6258 8.87527 10.4482 8.80606 10.264 8.80606C10.0797 8.80606 9.9021 8.87527 9.76642 8.99999L9.06576 9.70393C8.36511 10.4408 9.13978 12.3947 10.875 14.1283C12.6102 15.8618 14.5608 16.671 15.2977 15.9375L15.9983 15.2368C16.1207 15.1016 16.1885 14.9258 16.1885 14.7434C16.1885 14.561 16.1207 14.3852 15.9983 14.25L14.9671 13.1974Z" fill="url(#paint0_linear_401_2843)"/>
<path d="M12.5 0C10.0277 0 7.61099 0.733112 5.55538 2.10663C3.49976 3.48015 1.89761 5.43238 0.951512 7.71646C0.00541602 10.0005 -0.242126 12.5139 0.24019 14.9386C0.722505 17.3634 1.91301 19.5907 3.66117 21.3388C5.40933 23.087 7.63661 24.2775 10.0614 24.7598C12.4861 25.2421 14.9995 24.9946 17.2835 24.0485C19.5676 23.1024 21.5199 21.5002 22.8934 19.4446C24.2669 17.389 25 14.9723 25 12.5C25 9.18479 23.683 6.00537 21.3388 3.66117C18.9946 1.31696 15.8152 0 12.5 0V0ZM12.5 19.0789C11.213 19.0813 9.95411 18.7031 8.88159 17.9918L6.35362 18.801L7.17599 16.3569C6.4656 15.3752 6.04013 14.2164 5.94651 13.0083C5.85289 11.8002 6.09475 10.5896 6.64543 9.51024C7.1961 8.43084 8.03419 7.52449 9.06726 6.89116C10.1003 6.25783 11.2883 5.92212 12.5 5.92105C14.2449 5.92105 15.9182 6.61419 17.152 7.84798C18.3858 9.08177 19.079 10.7552 19.079 12.5C19.079 14.2448 18.3858 15.9182 17.152 17.152C15.9182 18.3858 14.2449 19.0789 12.5 19.0789Z" fill="url(#paint1_linear_401_2843)"/>
</g>
</g>
<defs>
<linearGradient id="paint0_linear_401_2843" x1="8.97849" y1="5.81377" x2="17.8879" y2="7.0346" gradientUnits="userSpaceOnUse">
<stop stop-color="#F9ED32"/>
<stop offset="0.811414" stop-color="#FBB040"/>
</linearGradient>
<linearGradient id="paint1_linear_401_2843" x1="0.574712" y1="-10.1064" x2="30.7537" y2="-5.95856" gradientUnits="userSpaceOnUse">
<stop stop-color="#F9ED32"/>
<stop offset="0.811414" stop-color="#FBB040"/>
</linearGradient>
<clipPath id="clip0_401_2843">
<rect width="25" height="25" fill="white"/>
</clipPath>
<clipPath id="clip1_401_2843">
<rect width="25" height="25" fill="white"/>
</clipPath>
</defs>
</svg>
